<svg width="35" height="35" viewBox="0 0 35 35" fill="none" xmlns="http://www.w3.org/2000/svg">
<path d="M31.7188 30.8984H28.1641V4.10156H29.5312C29.7488 4.10156 29.9575 4.01514 30.1113 3.8613C30.2651 3.70746 30.3516 3.49881 30.3516 3.28125C30.3516 3.06369 30.2651 2.85504 30.1113 2.7012C29.9575 2.54736 29.7488 2.46094 29.5312 2.46094H5.46875C5.25119 2.46094 5.04254 2.54736 4.8887 2.7012C4.73486 2.85504 4.64844 3.06369 4.64844 3.28125C4.64844 3.49881 4.73486 3.70746 4.8887 3.8613C5.04254 4.01514 5.25119 4.10156 5.46875 4.10156H6.83594V30.8984H3.28125C3.06369 30.8984 2.85504 30.9849 2.7012 31.1387C2.54736 31.2925 2.46094 31.5012 2.46094 31.7188C2.46094 31.9363 2.54736 32.145 2.7012 32.2988C2.85504 32.4526 3.06369 32.5391 3.28125 32.5391H31.7188C31.9363 32.5391 32.145 32.4526 32.2988 32.2988C32.4526 32.145 32.5391 31.9363 32.5391 31.7188C32.5391 31.5012 32.4526 31.2925 32.2988 31.1387C32.145 30.9849 31.9363 30.8984 31.7188 30.8984ZM8.47656 4.10156H26.5234V30.8984H21.6016V25.1562C21.6016 24.9387 21.5151 24.73 21.3613 24.5762C21.2075 24.4224 20.9988 24.3359 20.7812 24.3359H14.2188C14.0012 24.3359 13.7925 24.4224 13.6387 24.5762C13.4849 24.73 13.3984 24.9387 13.3984 25.1562V30.8984H8.47656V4.10156ZM19.9609 30.8984H15.0391V25.9766H19.9609V30.8984ZM12.3047 8.75C12.3047 8.53244 12.3911 8.32379 12.545 8.16995C12.6988 8.01611 12.9074 7.92969 13.125 7.92969H15.3125C15.5301 7.92969 15.7387 8.01611 15.8925 8.16995C16.0464 8.32379 16.1328 8.53244 16.1328 8.75C16.1328 8.96756 16.0464 9.17621 15.8925 9.33005C15.7387 9.48389 15.5301 9.57031 15.3125 9.57031H13.125C12.9074 9.57031 12.6988 9.48389 12.545 9.33005C12.3911 9.17621 12.3047 8.96756 12.3047 8.75ZM18.8672 8.75C18.8672 8.53244 18.9536 8.32379 19.1075 8.16995C19.2613 8.01611 19.4699 7.92969 19.6875 7.92969H21.875C22.0926 7.92969 22.3012 8.01611 22.455 8.16995C22.6089 8.32379 22.6953 8.53244 22.6953 8.75C22.6953 8.96756 22.6089 9.17621 22.455 9.33005C22.3012 9.48389 22.0926 9.57031 21.875 9.57031H19.6875C19.4699 9.57031 19.2613 9.48389 19.1075 9.33005C18.9536 9.17621 18.8672 8.96756 18.8672 8.75ZM12.3047 14.2188C12.3047 14.0012 12.3911 13.7925 12.545 13.6387C12.6988 13.4849 12.9074 13.3984 13.125 13.3984H15.3125C15.5301 13.3984 15.7387 13.4849 15.8925 13.6387C16.0464 13.7925 16.1328 14.0012 16.1328 14.2188C16.1328 14.4363 16.0464 14.645 15.8925 14.7988C15.7387 14.9526 15.5301 15.0391 15.3125 15.0391H13.125C12.9074 15.0391 12.6988 14.9526 12.545 14.7988C12.3911 14.645 12.3047 14.4363 12.3047 14.2188ZM18.8672 14.2188C18.8672 14.0012 18.9536 13.7925 19.1075 13.6387C19.2613 13.4849 19.4699 13.3984 19.6875 13.3984H21.875C22.0926 13.3984 22.3012 13.4849 22.455 13.6387C22.6089 13.7925 22.6953 14.0012 22.6953 14.2188C22.6953 14.4363 22.6089 14.645 22.455 14.7988C22.3012 14.9526 22.0926 15.0391 21.875 15.0391H19.6875C19.4699 15.0391 19.2613 14.9526 19.1075 14.7988C18.9536 14.645 18.8672 14.4363 18.8672 14.2188ZM13.125 20.5078C12.9074 20.5078 12.6988 20.4214 12.545 20.2675C12.3911 20.1137 12.3047 19.9051 12.3047 19.6875C12.3047 19.4699 12.3911 19.2613 12.545 19.1075C12.6988 18.9536 12.9074 18.8672 13.125 18.8672H15.3125C15.5301 18.8672 15.7387 18.9536 15.8925 19.1075C16.0464 19.2613 16.1328 19.4699 16.1328 19.6875C16.1328 19.9051 16.0464 20.1137 15.8925 20.2675C15.7387 20.4214 15.5301 20.5078 15.3125 20.5078H13.125ZM18.8672 19.6875C18.8672 19.4699 18.9536 19.2613 19.1075 19.1075C19.2613 18.9536 19.4699 18.8672 19.6875 18.8672H21.875C22.0926 18.8672 22.3012 18.9536 22.455 19.1075C22.6089 19.2613 22.6953 19.4699 22.6953 19.6875C22.6953 19.9051 22.6089 20.1137 22.455 20.2675C22.3012 20.4214 22.0926 20.5078 21.875 20.5078H19.6875C19.4699 20.5078 19.2613 20.4214 19.1075 20.2675C18.9536 20.1137 18.8672 19.9051 18.8672 19.6875Z" fill="white"/>
</svg>
