<svg width="35" height="35" viewBox="0 0 35 35" fill="none" xmlns="http://www.w3.org/2000/svg">
<path d="M17.5 20.4167C17.7885 20.4167 18.0704 20.3311 18.3102 20.1709C18.55 20.0106 18.737 19.7829 18.8473 19.5164C18.9577 19.2499 18.9866 18.9567 18.9303 18.6738C18.8741 18.3909 18.7352 18.1311 18.5312 17.9271C18.3273 17.7232 18.0674 17.5843 17.7845 17.528C17.5016 17.4717 17.2084 17.5006 16.9419 17.611C16.6755 17.7214 16.4477 17.9083 16.2875 18.1481C16.1272 18.3879 16.0417 18.6699 16.0417 18.9583C16.0417 19.3451 16.1953 19.716 16.4688 19.9895C16.7423 20.263 17.1132 20.4167 17.5 20.4167ZM24.7917 20.4167C25.0801 20.4167 25.3621 20.3311 25.6019 20.1709C25.8417 20.0106 26.0286 19.7829 26.139 19.5164C26.2494 19.2499 26.2783 18.9567 26.222 18.6738C26.1657 18.3909 26.0268 18.1311 25.8229 17.9271C25.6189 17.7232 25.3591 17.5843 25.0762 17.528C24.7933 17.4717 24.5001 17.5006 24.2336 17.611C23.9671 17.7214 23.7394 17.9083 23.5791 18.1481C23.4189 18.3879 23.3334 18.6699 23.3334 18.9583C23.3334 19.3451 23.487 19.716 23.7605 19.9895C24.034 20.263 24.4049 20.4167 24.7917 20.4167ZM17.5 26.25C17.7885 26.25 18.0704 26.1645 18.3102 26.0042C18.55 25.844 18.737 25.6162 18.8473 25.3497C18.9577 25.0833 18.9866 24.79 18.9303 24.5071C18.8741 24.2243 18.7352 23.9644 18.5312 23.7605C18.3273 23.5565 18.0674 23.4176 17.7845 23.3613C17.5016 23.3051 17.2084 23.334 16.9419 23.4443C16.6755 23.5547 16.4477 23.7416 16.2875 23.9814C16.1272 24.2213 16.0417 24.5032 16.0417 24.7917C16.0417 25.1784 16.1953 25.5494 16.4688 25.8229C16.7423 26.0963 17.1132 26.25 17.5 26.25ZM24.7917 26.25C25.0801 26.25 25.3621 26.1645 25.6019 26.0042C25.8417 25.844 26.0286 25.6162 26.139 25.3497C26.2494 25.0833 26.2783 24.79 26.222 24.5071C26.1657 24.2243 26.0268 23.9644 25.8229 23.7605C25.6189 23.5565 25.3591 23.4176 25.0762 23.3613C24.7933 23.3051 24.5001 23.334 24.2336 23.4443C23.9671 23.5547 23.7394 23.7416 23.5791 23.9814C23.4189 24.2213 23.3334 24.5032 23.3334 24.7917C23.3334 25.1784 23.487 25.5494 23.7605 25.8229C24.034 26.0963 24.4049 26.25 24.7917 26.25ZM10.2084 20.4167C10.4968 20.4167 10.7787 20.3311 11.0186 20.1709C11.2584 20.0106 11.4453 19.7829 11.5557 19.5164C11.6661 19.2499 11.6949 18.9567 11.6387 18.6738C11.5824 18.3909 11.4435 18.1311 11.2396 17.9271C11.0356 17.7232 10.7757 17.5843 10.4929 17.528C10.21 17.4717 9.91675 17.5006 9.65027 17.611C9.3838 17.7214 9.15604 17.9083 8.99579 18.1481C8.83555 18.3879 8.75002 18.6699 8.75002 18.9583C8.75002 19.3451 8.90367 19.716 9.17716 19.9895C9.45065 20.263 9.82158 20.4167 10.2084 20.4167ZM27.7084 5.83332H26.25V4.37499C26.25 3.98822 26.0964 3.61728 25.8229 3.34379C25.5494 3.0703 25.1785 2.91666 24.7917 2.91666C24.4049 2.91666 24.034 3.0703 23.7605 3.34379C23.487 3.61728 23.3334 3.98822 23.3334 4.37499V5.83332H11.6667V4.37499C11.6667 3.98822 11.513 3.61728 11.2396 3.34379C10.9661 3.0703 10.5951 2.91666 10.2084 2.91666C9.82158 2.91666 9.45065 3.0703 9.17716 3.34379C8.90367 3.61728 8.75002 3.98822 8.75002 4.37499V5.83332H7.29169C6.13136 5.83332 5.01857 6.29426 4.19809 7.11473C3.37762 7.9352 2.91669 9.048 2.91669 10.2083V27.7083C2.91669 28.8686 3.37762 29.9814 4.19809 30.8019C5.01857 31.6224 6.13136 32.0833 7.29169 32.0833H27.7084C28.8687 32.0833 29.9815 31.6224 30.8019 30.8019C31.6224 29.9814 32.0834 28.8686 32.0834 27.7083V10.2083C32.0834 9.048 31.6224 7.9352 30.8019 7.11473C29.9815 6.29426 28.8687 5.83332 27.7084 5.83332ZM29.1667 27.7083C29.1667 28.0951 29.013 28.466 28.7396 28.7395C28.4661 29.013 28.0951 29.1667 27.7084 29.1667H7.29169C6.90491 29.1667 6.53398 29.013 6.26049 28.7395C5.987 28.466 5.83335 28.0951 5.83335 27.7083V14.5833H29.1667V27.7083ZM29.1667 11.6667H5.83335V10.2083C5.83335 9.82155 5.987 9.45062 6.26049 9.17713C6.53398 8.90364 6.90491 8.74999 7.29169 8.74999H27.7084C28.0951 8.74999 28.4661 8.90364 28.7396 9.17713C29.013 9.45062 29.1667 9.82155 29.1667 10.2083V11.6667ZM10.2084 26.25C10.4968 26.25 10.7787 26.1645 11.0186 26.0042C11.2584 25.844 11.4453 25.6162 11.5557 25.3497C11.6661 25.0833 11.6949 24.79 11.6387 24.5071C11.5824 24.2243 11.4435 23.9644 11.2396 23.7605C11.0356 23.5565 10.7757 23.4176 10.4929 23.3613C10.21 23.3051 9.91675 23.334 9.65027 23.4443C9.3838 23.5547 9.15604 23.7416 8.99579 23.9814C8.83555 24.2213 8.75002 24.5032 8.75002 24.7917C8.75002 25.1784 8.90367 25.5494 9.17716 25.8229C9.45065 26.0963 9.82158 26.25 10.2084 26.25Z" fill="white"/>
</svg>
