<svg width="35" height="35" viewBox="0 0 35 35" fill="none" xmlns="http://www.w3.org/2000/svg">
<path d="M35 26.25V28.4375H23.96L27.5659 32.0435L26.0278 33.5815L19.79 27.3438L26.0278 21.106L27.5659 22.644L23.96 26.25H35ZM22.0801 18.8501L20.5762 20.4395C19.5622 19.4824 18.4172 18.7533 17.1411 18.252C15.8651 17.7507 14.5264 17.5 13.125 17.5C12.1224 17.5 11.154 17.631 10.2197 17.8931C9.28548 18.1551 8.4139 18.5197 7.60498 18.9868C6.79606 19.4539 6.0612 20.0236 5.40039 20.6958C4.73958 21.368 4.16992 22.1086 3.69141 22.9175C3.21289 23.7264 2.84261 24.598 2.58057 25.5322C2.31852 26.4665 2.1875 27.4349 2.1875 28.4375H0C0 27.1045 0.199382 25.8 0.598145 24.5239C0.996908 23.2479 1.57227 22.0687 2.32422 20.9863C3.07617 19.904 3.97054 18.9412 5.00732 18.0981C6.04411 17.255 7.20052 16.6113 8.47656 16.167C7.83854 15.7568 7.26888 15.284 6.76758 14.7485C6.26628 14.2131 5.83333 13.6263 5.46875 12.9883C5.10417 12.3503 4.83643 11.6781 4.66553 10.9717C4.49463 10.2653 4.39779 9.52474 4.375 8.75C4.375 7.54232 4.60286 6.40869 5.05859 5.34912C5.51432 4.28955 6.13525 3.361 6.92139 2.56348C7.70752 1.76595 8.63607 1.13932 9.70703 0.683594C10.778 0.227865 11.9173 0 13.125 0C14.3327 0 15.4663 0.227865 16.5259 0.683594C17.5854 1.13932 18.514 1.76025 19.3115 2.54639C20.109 3.33252 20.7357 4.26107 21.1914 5.33203C21.6471 6.40299 21.875 7.54232 21.875 8.75C21.875 10.3109 21.5161 11.7236 20.7983 12.9883C20.0806 14.2529 19.0723 15.3125 17.7734 16.167C18.571 16.4632 19.3286 16.8392 20.0464 17.2949C20.7642 17.7507 21.4421 18.269 22.0801 18.8501ZM6.5625 8.75C6.5625 9.66146 6.7334 10.5103 7.0752 11.2964C7.41699 12.0825 7.88411 12.7775 8.47656 13.3813C9.06901 13.9852 9.764 14.458 10.5615 14.7998C11.359 15.1416 12.2135 15.3125 13.125 15.3125C14.0251 15.3125 14.8739 15.1416 15.6714 14.7998C16.4689 14.458 17.1639 13.9909 17.7563 13.3984C18.3488 12.806 18.8216 12.111 19.1748 11.3135C19.528 10.516 19.6989 9.66146 19.6875 8.75C19.6875 7.84994 19.5166 7.00114 19.1748 6.20361C18.833 5.40609 18.3659 4.7111 17.7734 4.11865C17.181 3.5262 16.4803 3.05339 15.6714 2.7002C14.8625 2.34701 14.0137 2.17611 13.125 2.1875C12.2135 2.1875 11.3647 2.3584 10.5786 2.7002C9.79248 3.04199 9.09749 3.50911 8.49365 4.10156C7.88981 4.69401 7.41699 5.39469 7.0752 6.20361C6.7334 7.01253 6.5625 7.86133 6.5625 8.75Z" fill="white"/>
</svg>
