<svg width="35" height="35" viewBox="0 0 35 35" fill="none" xmlns="http://www.w3.org/2000/svg">
<path d="M2.91669 7.29167C2.91669 6.51812 3.22398 5.77625 3.77096 5.22927C4.31794 4.68229 5.05981 4.375 5.83335 4.375H14.5834V30.625H5.83335C5.05981 30.625 4.31794 30.3177 3.77096 29.7707C3.22398 29.2237 2.91669 28.4819 2.91669 27.7083V7.29167ZM20.4167 4.375H29.1667C29.9402 4.375 30.6821 4.68229 31.2291 5.22927C31.7761 5.77625 32.0834 6.51812 32.0834 7.29167V14.5833H20.4167V4.375ZM20.4167 20.4167H32.0834V27.7083C32.0834 28.4819 31.7761 29.2237 31.2291 29.7707C30.6821 30.3177 29.9402 30.625 29.1667 30.625H20.4167V20.4167Z" stroke="#0084D4" stroke-width="2" stroke-linecap="round" stroke-linejoin="round"/>
</svg>
