<svg width="35" height="35" viewBox="0 0 35 35" fill="none" xmlns="http://www.w3.org/2000/svg">
<path d="M15.9736 16.2264C14.6276 16.2264 13.3118 15.8273 12.1927 15.0795C11.0735 14.3316 10.2012 13.2688 9.68612 12.0252C9.17103 10.7817 9.03625 9.41329 9.29885 8.09314C9.56144 6.77299 10.2096 5.56036 11.1614 4.60858C12.1132 3.65681 13.3258 3.00864 14.6459 2.74605C15.9661 2.48346 17.3345 2.61823 18.578 3.13333C19.8216 3.64842 20.8844 4.52071 21.6322 5.63987C22.3801 6.75904 22.7792 8.07483 22.7792 9.42084C22.7792 11.2258 22.0622 12.9568 20.7859 14.2331C19.5096 15.5094 17.7786 16.2264 15.9736 16.2264ZM15.9736 4.63751C15.0122 4.63751 14.0724 4.9226 13.2729 5.45675C12.4735 5.9909 11.8505 6.7501 11.4826 7.63835C11.1146 8.5266 11.0184 9.50401 11.2059 10.447C11.3935 11.3899 11.8565 12.2561 12.5363 12.9359C13.2162 13.6158 14.0823 14.0788 15.0253 14.2663C15.9682 14.4539 16.9456 14.3576 17.8339 13.9897C18.7222 13.6218 19.4814 12.9987 20.0155 12.1993C20.5496 11.3999 20.8347 10.4601 20.8347 9.49862C20.8347 8.86025 20.709 8.22813 20.4647 7.63835C20.2204 7.04857 19.8624 6.51269 19.411 6.06129C18.9596 5.6099 18.4237 5.25183 17.8339 5.00754C17.2441 4.76324 16.612 4.63751 15.9736 4.63751ZM21.3889 17.4028C16.1277 16.2182 10.6233 16.7884 5.71669 19.0264C5.04187 19.3487 4.4725 19.8562 4.0749 20.4896C3.6773 21.123 3.46782 21.8563 3.47086 22.6042V28.3889C3.47086 28.5166 3.49601 28.643 3.54486 28.761C3.59372 28.8789 3.66534 28.9861 3.75562 29.0764C3.84589 29.1666 3.95307 29.2383 4.07103 29.2871C4.18898 29.336 4.31541 29.3611 4.44308 29.3611C4.57075 29.3611 4.69718 29.336 4.81513 29.2871C4.93309 29.2383 5.04027 29.1666 5.13054 29.0764C5.22082 28.9861 5.29244 28.8789 5.3413 28.761C5.39015 28.643 5.4153 28.5166 5.4153 28.3889V22.6042C5.40684 22.2257 5.50904 21.853 5.70938 21.5317C5.90972 21.2105 6.19947 20.9547 6.54308 20.7958C9.4988 19.4307 12.7179 18.7305 15.9736 18.7445C17.7978 18.7423 19.6157 18.9577 21.3889 19.3861V17.4028ZM21.525 26.6486H27.4945V28.0097H21.525V26.6486Z" fill="white"/>
<path d="M32.2486 20.8736H27.2222V22.8181H31.2764V30.9556H17.5V22.8181H23.625V23.2264C23.625 23.4842 23.7274 23.7315 23.9097 23.9139C24.0921 24.0962 24.3394 24.1986 24.5972 24.1986C24.8551 24.1986 25.1023 24.0962 25.2847 23.9139C25.467 23.7315 25.5694 23.4842 25.5694 23.2264V19.4445C25.5694 19.1866 25.467 18.9393 25.2847 18.757C25.1023 18.5747 24.8551 18.4722 24.5972 18.4722C24.3394 18.4722 24.0921 18.5747 23.9097 18.757C23.7274 18.9393 23.625 19.1866 23.625 19.4445V20.8736H16.5278C16.2699 20.8736 16.0226 20.976 15.8403 21.1584C15.658 21.3407 15.5555 21.588 15.5555 21.8458V31.9278C15.5555 32.1856 15.658 32.4329 15.8403 32.6153C16.0226 32.7976 16.2699 32.9 16.5278 32.9H32.2486C32.5064 32.9 32.7537 32.7976 32.9361 32.6153C33.1184 32.4329 33.2208 32.1856 33.2208 31.9278V21.8458C33.2208 21.588 33.1184 21.3407 32.9361 21.1584C32.7537 20.976 32.5064 20.8736 32.2486 20.8736Z" fill="white"/>
</svg>
